<svg width="13" height="19" viewBox="0 0 13 19" fill="none" xmlns="http://www.w3.org/2000/svg">
<path d="M6.5 0C2.91028 0 0 2.67852 0 5.98323C0 8.74371 4.53688 16.3273 6.03003 18.7481C6.23723 19.084 6.76277 19.084 6.96997 18.7481C8.46312 16.3273 13 8.74371 13 5.98323C13 2.67852 10.0895 0 6.5 0ZM6.5 8.11581C5.02482 8.11581 3.82894 7.01501 3.82894 5.65711C3.82894 4.29883 5.02482 3.19803 6.5 3.19803C7.97518 3.19803 9.17106 4.29883 9.17106 5.65711C9.17106 7.01501 7.97518 8.11581 6.5 8.11581Z" fill="#006BBE"/>
</svg>
