<svg width="35" height="21" viewBox="0 0 35 21" fill="none" xmlns="http://www.w3.org/2000/svg">
<path d="M0.25 2.44749C0.251502 1.23269 1.2284 0.251507 2.43069 0.25H22.5963C23.7983 0.251507 24.7755 1.23279 24.7769 2.44764V18.5524C24.7755 19.7673 23.7982 20.7486 22.5961 20.75H2.43083C1.22848 20.7486 0.251502 19.7674 0.25 18.5525V2.44749ZM27.5275 14.0505C27.1397 13.8374 26.8976 13.4273 26.8976 12.9808V8.0719C26.8976 7.62534 27.1397 7.21532 27.5275 7.00215L32.9633 4.01389C33.7659 3.57266 34.75 4.15598 34.75 5.08365V15.969C34.75 16.8967 33.7659 17.48 32.9633 17.0388L27.5275 14.0505Z" fill="url(#paint0_linear_13053_24613)" stroke="#4C4C4C" stroke-width="0.5"/>
<defs>
<linearGradient id="paint0_linear_13053_24613" x1="17.5" y1="13.9499" x2="17.5" y2="0" gradientUnits="userSpaceOnUse">
<stop stop-color="white"/>
<stop offset="1" stop-color="#0090FF"/>
</linearGradient>
</defs>
</svg>
