<svg width="16" height="13" viewBox="0 0 16 13" fill="none" xmlns="http://www.w3.org/2000/svg">
<path d="M14.9611 8.61035C14.8299 8.7693 14.675 8.91235 14.5041 9.02759V10.8078H14.7266C15.1955 10.8078 15.573 10.4303 15.577 9.96538V7.81562L14.9611 8.61035Z" fill="#4C4C4C"/>
<path d="M11.2058 4.8076H13.4987C13.5662 4.8076 13.6378 4.79966 13.7093 4.78376V2.5108C13.7093 2.04191 13.3278 1.66838 12.8629 1.66838H0.850373C0.381476 1.66838 0.00397371 2.04588 0 2.5108V11.6225C0.00397371 12.0914 0.381476 12.4729 0.850373 12.4769H12.8629C13.3318 12.4729 13.7093 12.0914 13.7093 11.6225L13.7053 9.31379C13.6378 9.32173 13.5662 9.32968 13.4947 9.33366H11.2058C9.9581 9.32968 8.94481 8.31639 8.94481 7.06864C8.94481 5.8209 9.9581 4.8076 11.2058 4.8076Z" fill="#4C4C4C"/>
<path d="M14.7266 0H2.71406C2.24516 0.00397371 1.86766 0.385449 1.86766 0.854347V0.874215H12.8629C13.7689 0.874215 14.504 1.60538 14.504 2.51138V4.17239L15.5769 2.78954V0.854347C15.573 0.385449 15.1955 0.00397371 14.7266 0Z" fill="#4C4C4C"/>
<path d="M15.5734 4.08837L14.9574 4.88311C14.7786 5.11359 14.5481 5.30035 14.2859 5.42353C14.0395 5.54275 13.7693 5.60235 13.4951 5.60235H11.2063C10.3956 5.60633 9.73996 6.26199 9.73996 7.07262C9.73996 7.88326 10.3956 8.53892 11.2063 8.54289H13.4991C13.8249 8.53892 14.1349 8.38792 14.3336 8.12963L15.5773 6.5163L15.5734 4.08837ZM12.0964 7.46999H11.1427C10.9241 7.46999 10.7453 7.29118 10.7453 7.07262C10.7453 6.85407 10.9241 6.67525 11.1427 6.67525H12.0964C12.3149 6.67525 12.4937 6.85407 12.4937 7.07262C12.4937 7.29118 12.3149 7.46999 12.0964 7.46999Z" fill="#4C4C4C"/>
</svg>
