<svg width="15" height="16" viewBox="0 0 15 16" fill="none" xmlns="http://www.w3.org/2000/svg">
<path d="M7.85034 2.42734V1.6013C7.85034 1.55218 7.81038 1.512 7.76029 1.512C7.71019 1.512 7.67023 1.55163 7.67023 1.6013V2.42734C7.67023 2.47646 7.71019 2.51665 7.76029 2.51665C7.81038 2.51665 7.85034 2.47646 7.85034 2.42734Z" fill="#505050"/>
<path d="M7.67081 13.7514V14.5774C7.67081 14.6265 7.71077 14.6667 7.76086 14.6667C7.81095 14.6667 7.85091 14.6271 7.85091 14.5774V13.7514C7.85091 13.7023 7.81095 13.6621 7.76086 13.6621C7.71077 13.6621 7.67081 13.7017 7.67081 13.7514Z" fill="#505050"/>
<path d="M13.5085 8.03605C13.4589 8.03605 13.4184 8.07568 13.4184 8.12535C13.4184 8.17447 13.4584 8.21465 13.5085 8.21465H14.3415C14.391 8.21465 14.4315 8.17503 14.4315 8.12535C14.4315 8.07624 14.3916 8.03605 14.3415 8.03605H13.5085Z" fill="#505050"/>
<path d="M1.04801 8.03605C0.998484 8.03605 0.95796 8.07568 0.95796 8.12535C0.95796 8.17447 0.997921 8.21465 1.04801 8.21465H1.881C1.93053 8.21465 1.97105 8.17503 1.97105 8.12535C1.97105 8.07624 1.93109 8.03605 1.881 8.03605H1.04801Z" fill="#505050"/>
<path d="M4.42499 6.48276L3.24192 7.24573C5.72512 9.24944 7.59147 11.0377 7.59147 11.0377C10.181 8.2487 12.7245 6.19197 15 4.58844C15 4.58844 14.2666 3.23775 14.1389 2.96873C9.85517 6.58992 7.39954 8.9207 7.39954 8.9207C5.94013 7.75363 4.42499 6.48276 4.42499 6.48276Z" fill="#505050"/>
<path d="M7.82896 15.1009C3.96514 15.1009 0.832425 12.0066 0.832425 8.18954C0.832425 4.37244 3.96457 1.27813 7.82896 1.27813C8.51224 1.27813 9.17244 1.37525 9.79662 1.55608C9.52083 1.99757 9.25292 2.38659 9.12178 2.49654C9.44541 2.49878 11.878 2.51608 11.9956 2.5172C11.8436 2.23366 10.7033 0.102697 10.6482 0C10.6257 0.109395 10.4259 0.492276 10.1743 0.927623C9.32103 0.578788 8.38898 0.385672 7.41303 0.385672C3.31901 0.385672 0 3.76184 0 7.92721C0 12.0926 3.31901 15.4688 7.41247 15.4688C9.89174 15.4688 12.0868 14.2297 13.4325 12.3276C12.1566 14.0115 10.1214 15.1009 7.82896 15.1009Z" fill="#505050"/>
<path d="M13.4325 12.3281C14.3071 11.1745 14.8249 9.74172 14.8249 8.18954C14.8249 8.14657 14.8238 8.10359 14.8232 8.06061C14.7962 9.65186 14.2852 11.1231 13.4325 12.3281Z" fill="#505050"/>
</svg>
