<svg width="15" height="13" viewBox="0 0 15 13" fill="none" xmlns="http://www.w3.org/2000/svg">
<g clip-path="url(#clip0_18153_21704)">
<path d="M5.23991 6.50023C3.51434 6.15968 1.87303 6.05436 0.475717 7.38672C0.335284 7.28666 0.193095 7.18484 0 7.04617C0.235225 6.84429 0.433587 6.63891 0.663546 6.48092C1.62551 5.81562 2.71211 5.61024 3.85489 5.71732C4.69573 5.79631 5.52779 5.96834 6.36864 6.05611C6.86893 6.10878 7.38151 6.10702 7.88531 6.07542C8.22937 6.05436 8.52077 5.84195 8.38736 5.5014C7.52721 5.67519 6.67057 5.55055 5.76829 5.43294C6.17905 4.88525 6.56349 4.37443 6.97074 3.83025C6.57051 3.72844 6.20714 3.62838 5.84026 3.55114C5.77355 3.5371 5.66998 3.60556 5.61205 3.66524C5.20655 4.0725 4.80808 4.48853 4.40609 4.8993C4.1849 5.12575 3.93037 5.13803 3.68812 4.93792C3.43885 4.73078 3.38619 4.43938 3.57578 4.19889C4.02516 3.62662 4.48332 3.06138 4.93622 2.49263C5.0907 2.29953 5.2873 2.2258 5.53657 2.23458C6.48274 2.26969 7.43066 2.289 8.37858 2.3206C9.11235 2.34342 9.77589 3.02101 9.78467 3.75477C9.79169 4.27964 9.78643 4.8045 9.80749 5.32762C9.81276 5.44347 9.88122 5.58742 9.96899 5.66115C10.4675 6.07718 10.9801 6.47741 11.4909 6.8794C11.7104 7.05319 11.756 7.32703 11.5998 7.57455C11.44 7.82732 11.175 7.9151 10.9257 7.77817C10.1972 7.38321 9.47221 6.98297 8.74898 6.57572C8.61381 6.49848 8.50322 6.48619 8.3505 6.54061C8.12229 6.62136 7.87829 6.65822 7.63604 6.69508C7.38327 6.73195 7.34114 6.80216 7.48684 7.01632C7.81159 7.49204 8.13283 7.96776 8.46636 8.43645C8.61205 8.64184 8.64014 8.83844 8.55062 9.07718C8.18724 10.0514 7.83792 11.031 7.47981 12.007C7.34465 12.3756 7.0866 12.4897 6.69163 12.3598C6.34582 12.2457 6.21241 11.9929 6.31071 11.6243C6.49854 10.9221 6.68812 10.22 6.88648 9.51954C6.93037 9.36682 6.9093 9.25447 6.81276 9.12457C6.37741 8.54178 5.95787 7.94669 5.52253 7.36565C5.3347 7.11463 5.19076 6.85483 5.23991 6.50023Z" fill="#505050"/>
<path d="M13.0386 10.8221C12.9543 10.7782 12.8911 10.7519 12.8349 10.7168C12.2276 10.3341 11.6237 9.94443 11.0111 9.56877C10.8461 9.46871 10.8373 9.38972 10.9409 9.22997C11.485 8.38737 12.0187 7.53775 12.5523 6.68989C12.8121 6.27737 12.8086 6.27912 13.2352 6.54595C13.7653 6.87596 14.2954 7.20598 14.8326 7.52547C15.0187 7.63606 15.0503 7.73963 14.9274 7.92921C14.3446 8.82974 13.7758 9.73729 13.1983 10.6413C13.1562 10.7098 13.093 10.7624 13.0386 10.8221Z" fill="#505050"/>
<path d="M11.9221 1.43419C11.9204 2.21886 11.2849 2.84905 10.5003 2.84905C9.71208 2.8508 9.07311 2.19779 9.08014 1.40083C9.08716 0.637229 9.72613 0.00352526 10.4932 1.44379e-05C11.2902 -0.00349639 11.9257 0.633718 11.9221 1.43419Z" fill="#505050"/>
<path d="M4.93653 7.6958C5.31043 8.21014 5.66327 8.69287 6.01084 9.17737C6.03191 9.20721 6.04419 9.25636 6.03542 9.29147C5.97573 9.57409 5.64923 9.83565 5.35607 9.84267C4.35022 9.86373 3.34437 9.88304 2.33852 9.9006C1.95233 9.90762 1.75572 9.73032 1.72237 9.35466C1.69077 8.98603 1.86631 8.75256 2.24022 8.70867C2.93711 8.62441 3.63401 8.54366 4.33091 8.48047C4.53454 8.46116 4.65391 8.39445 4.71535 8.19609C4.76976 8.03811 4.85227 7.8889 4.93653 7.6958Z" fill="#505050"/>
</g>
<defs>
<clipPath id="clip0_18153_21704">
<rect width="15" height="12.4125" fill="white"/>
</clipPath>
</defs>
</svg>
