<?xml version="1.0" ?><svg fill="none" height="14" viewBox="0 0 14 14" width="14" xmlns="http://www.w3.org/2000/svg"><g clip-path="url(#clip0_2_911)"><path d="M0.725 2.30001C0.840267 1.80676 1.12089 1.36782 1.52022 1.05618C1.91955 0.74454 2.41352 0.578974 2.92 0.58701L6.447 0.73901C8.947 1.09101 9.367 3.37101 9.367 5.28401V7.70901C9.3669 8.20896 9.17796 8.69043 8.838 9.05701L5.932 12.794C5.498 13.263 4.962 13.881 4.293 12.872C4.02588 12.5518 3.86202 12.1582 3.823 11.743C3.82294 11.4947 3.88117 11.2498 3.993 11.028L5.15 8.81001H1.207C1.00455 8.81347 0.805575 8.75711 0.635 8.64801C0.39581 8.50153 0.209007 8.28323 0.101258 8.02427C-0.00649188 7.76531 -0.0296812 7.47893 0.035 7.20601L0.725 2.30001Z" fill="#FF6A6A"/><path d="M12.5 1.58002H11.1C11.0145 1.58054 10.9326 1.61474 10.8722 1.6752C10.8117 1.73566 10.7775 1.81751 10.777 1.90302L10.454 7.63102C10.4543 7.7166 10.4884 7.7986 10.5489 7.85912C10.6094 7.91964 10.6914 7.95375 10.777 7.95402H12.177C12.5743 7.95218 12.9547 7.79355 13.2356 7.51264C13.5165 7.23174 13.6752 6.85127 13.677 6.45402L14 3.08202C13.9987 2.68441 13.8403 2.30344 13.5593 2.0221C13.2784 1.74076 12.8976 1.58186 12.5 1.58002Z" fill="#FF6A6A"/></g><defs><clipPath id="clip0_2_911"><rect fill="white" height="14" width="14"/></clipPath></defs></svg>