<svg width="13" height="13" viewBox="0 0 13 13" fill="none" xmlns="http://www.w3.org/2000/svg">
<path d="M6.90154 12.5597L6.20279 11.856L11.3121 6.76659L6.20279 1.65731L6.90154 0.953613L12.0059 6.05793C12.098 6.14998 12.1711 6.25929 12.221 6.37961C12.2709 6.49993 12.2965 6.6289 12.2965 6.75915C12.2965 6.8894 12.2709 7.01837 12.221 7.1387C12.1711 7.25902 12.098 7.36833 12.0059 7.46038L6.90154 12.5597Z" fill="#006BBE"/>
<path d="M1.45033 12.5597L0.751587 11.856L5.86086 6.76659L0.751587 1.65731L1.45033 0.953613L6.55465 6.05793C6.6468 6.14998 6.7199 6.25929 6.76978 6.37961C6.81966 6.49993 6.84533 6.6289 6.84533 6.75915C6.84533 6.8894 6.81966 7.01837 6.76978 7.1387C6.7199 7.25902 6.6468 7.36833 6.55465 7.46038L1.45033 12.5597Z" fill="#006BBE"/>
</svg>
