<svg width="68" height="68" viewBox="0 0 68 68" fill="none" xmlns="http://www.w3.org/2000/svg">
<path d="M49.9517 43.2789L53.4225 42.4998V11.7014C53.4235 11.4129 53.3606 11.1278 53.2384 10.8664C53.1161 10.6051 52.9376 10.374 52.7155 10.1899C52.4934 10.0057 52.2333 9.87297 51.9538 9.8012C51.6744 9.72943 51.3825 9.7204 51.0992 9.77476L20.5275 15.5831V12.7498C20.5264 12.4624 20.462 12.1789 20.3389 11.9193C20.2157 11.6597 20.0369 11.4305 19.815 11.2479C19.5932 11.0653 19.3338 10.9338 19.0554 10.8628C18.777 10.7919 18.4864 10.7831 18.2042 10.8373L10.0584 12.3248C9.61716 12.4134 9.2205 12.6527 8.93623 13.0016C8.65197 13.3504 8.49777 13.7872 8.50002 14.2373V49.7248C8.5001 50.3744 8.66204 51.0138 8.97121 51.5852C9.28039 52.1565 9.72706 52.6418 10.2709 52.9973L13.7275 55.2498L56.3409 46.9481L49.9517 43.2789Z" fill="#ADC4D9"/>
<path d="M10.0585 18.4164L18.2044 16.9998C18.4865 16.9456 18.7772 16.9544 19.0556 17.0253C19.334 17.0963 19.5934 17.2278 19.8152 17.4104C20.037 17.593 20.2159 17.8222 20.339 18.0818C20.4622 18.3414 20.5266 18.6249 20.5277 18.9123V21.7456L51.0994 15.9939C51.3824 15.9422 51.6733 15.9531 51.9517 16.0259C52.23 16.0986 52.4891 16.2315 52.7105 16.4152C52.932 16.5989 53.1105 16.8288 53.2336 17.0889C53.3566 17.349 53.4212 17.6329 53.4227 17.9206V11.7014C53.4237 11.4129 53.3608 11.1278 53.2385 10.8664C53.1163 10.6051 52.9377 10.374 52.7156 10.1899C52.4936 10.0057 52.2335 9.87297 51.954 9.8012C51.6746 9.72943 51.3827 9.7204 51.0994 9.77476L20.5277 15.5831V12.7498C20.5266 12.4624 20.4622 12.1789 20.339 11.9193C20.2159 11.6597 20.037 11.4305 19.8152 11.2479C19.5934 11.0653 19.334 10.9338 19.0556 10.8628C18.7772 10.7919 18.4865 10.7831 18.2044 10.8373L10.0585 12.3248C9.61733 12.4134 9.22067 12.6527 8.9364 13.0016C8.65214 13.3504 8.49794 13.7872 8.5002 14.2373V20.3998C8.48108 19.9377 8.62756 19.4841 8.91326 19.1204C9.19895 18.7568 9.60509 18.5072 10.0585 18.4164Z" fill="#C0DCEB"/>
<path d="M49.9517 43.2789L53.4225 42.4998V11.7014C53.4235 11.4129 53.3606 11.1278 53.2384 10.8664C53.1161 10.6051 52.9376 10.374 52.7155 10.1899C52.4934 10.0057 52.2333 9.87297 51.9539 9.8012C51.6744 9.72943 51.3825 9.7204 51.0992 9.77476L20.5275 15.5831V12.7498C20.5264 12.4624 20.462 12.1789 20.3389 11.9193C20.2157 11.6597 20.0369 11.4305 19.815 11.2479C19.5932 11.0653 19.3338 10.9338 19.0554 10.8628C18.777 10.7919 18.4864 10.7831 18.2042 10.8373L10.0584 12.3248C9.61716 12.4134 9.2205 12.6527 8.93623 13.0016C8.65197 13.3504 8.49777 13.7872 8.50002 14.2373V49.7248C8.5001 50.3744 8.66204 51.0138 8.97121 51.5852C9.28039 52.1565 9.72706 52.6418 10.2709 52.9973L13.7275 55.2498L56.3409 46.9481L49.9517 43.2789Z" stroke="#45413C" stroke-linecap="round" stroke-linejoin="round"/>
<path opacity="0.15" d="M33.2916 65.1668C45.7005 65.1668 55.7599 63.8538 55.7599 62.2343C55.7599 60.6147 45.7005 59.3018 33.2916 59.3018C20.8827 59.3018 10.8232 60.6147 10.8232 62.2343C10.8232 63.8538 20.8827 65.1668 33.2916 65.1668Z" fill="#45413C"/>
<path d="M13.7275 55.25L18.0484 23.3183C18.1016 22.9075 18.284 22.5242 18.5692 22.2238C18.8543 21.9233 19.2276 21.7212 19.635 21.6466L59.9959 14.2375C60.3149 14.1666 60.6467 14.1768 60.9608 14.2672C61.2749 14.3577 61.5613 14.5254 61.7938 14.7551C62.0263 14.9848 62.1976 15.2692 62.2918 15.5821C62.3861 15.8951 62.4004 16.2267 62.3334 16.5466L56.3409 46.9625L13.7275 55.25Z" fill="#C0DCEB"/>
<path d="M14.5917 48.8749L13.7275 55.2641L56.3409 46.9624L57.6017 40.5024L14.5917 48.8749Z" fill="#ADC4D9"/>
<path d="M13.7275 55.25L18.0484 23.3183C18.1016 22.9075 18.284 22.5242 18.5692 22.2238C18.8543 21.9233 19.2276 21.7212 19.635 21.6466L59.9959 14.2375C60.3149 14.1666 60.6467 14.1768 60.9608 14.2672C61.2749 14.3577 61.5613 14.5254 61.7938 14.7551C62.0263 14.9848 62.1976 15.2692 62.2918 15.5821C62.3861 15.8951 62.4004 16.2267 62.3334 16.5466L56.3409 46.9625L13.7275 55.25Z" stroke="#45413C" stroke-linecap="round" stroke-linejoin="round"/>
</svg>


