<svg xmlns="http://www.w3.org/2000/svg" width="118" height="99" fill="none"><path fill="#0090FF" d="M32.118 22.72C-.665 51.313 0 50.67 0 52.828c0 1.882 1.094 3.259 3.235 4.039.714.275 3.569.413 6.519.321l5.234-.138.238 19.369.238 19.414 1.57 1.469 1.522 1.514 39.54.138c21.744.092 40.3.046 41.204-.138.952-.137 2.189-.78 2.807-1.377l1.142-1.101V56.729l4.235.322c5.234.413 7.708.045 9.278-1.377 1.332-1.194 1.618-3.121.714-4.911C116.715 49.248 60.38.185 59.191 0c-.666-.092-8.28 6.288-27.073 22.719Zm32.26 11.841c5.28 1.056 8.564 2.754 11.704 6.013 6.09 6.242 7.946 13.677 5.472 21.8-1.904 6.242-12.466 20.057-18.747 24.51-1.76 1.239-2.712 1.606-4.282 1.606-1.808 0-2.237-.276-4.949-2.892-4.663-4.452-13.037-14.916-14.797-18.45-2.284-4.498-3.378-10.74-2.665-15.146 2.046-12.163 14.988-20.149 28.263-17.44Z"/></svg>