<svg xmlns="http://www.w3.org/2000/svg" width="51" height="51" fill="none"><path fill="#14D8C4" d="M4.039 35.272c-1.522.447-2.935-.966-2.488-2.487L3.457 26.3c.43-1.459 2.264-1.927 3.34-.851l4.577 4.578c1.076 1.075.608 2.91-.851 3.339l-6.484 1.906Z"/><path fill="#14D8C4" d="M.675 18.16C.675 8.313 8.659.329 18.508.329c9.849 0 17.832 7.984 17.832 17.833 0 9.849-7.983 17.833-17.832 17.833-3.339 0-6.461-.917-9.134-2.514-5.21-3.113-8.7-8.808-8.7-15.32Z"/><path fill="#FD4304" d="M18.064 49.565c-1.521.448-2.935-.966-2.487-2.487l1.906-6.484c.429-1.46 2.263-1.927 3.339-.852L25.4 44.32c1.075 1.076.608 2.91-.852 3.34l-6.484 1.905Z" style="mix-blend-mode:darken"/><path fill="#FD4304" d="M14.7 32.454c0-9.849 7.984-17.832 17.833-17.832 9.85 0 17.833 7.983 17.833 17.832 0 9.85-7.984 17.833-17.833 17.833-3.338 0-6.461-.916-9.134-2.513-5.21-3.113-8.699-8.809-8.699-15.32Z" style="mix-blend-mode:darken"/></svg>