<svg width="81" height="71" viewBox="0 0 81 71" fill="none" xmlns="http://www.w3.org/2000/svg">
<path d="M22.0469 16.1679C-0.456556 36.5157 0.000697325 36.0584 0.000697325 37.5935C0.000697325 38.9326 0.7519 39.9124 2.22165 40.4677C2.71156 40.6637 4.67122 40.7616 6.6962 40.6963L10.2889 40.5983L10.4522 54.3813L10.6155 68.1969L11.6933 69.242L12.7385 70.3199L39.8798 70.4178C54.8059 70.4832 67.5436 70.4505 68.1642 70.3199C68.8174 70.2219 69.6666 69.7646 70.0912 69.34L70.8751 68.5562V54.4466V40.3697L73.7819 40.5983C77.3746 40.8923 79.073 40.631 80.1508 39.6185C81.0653 38.7693 81.2613 37.3975 80.6407 36.1238C80.1181 35.046 41.4475 0.131325 40.631 0.000679016C40.1737 -0.0646439 34.948 4.47523 22.0469 16.1679ZM44.191 24.5944C47.8164 25.3456 50.07 26.5541 52.2256 28.873C56.4062 33.3149 57.68 38.606 55.9817 44.387C54.6752 48.8289 47.4245 58.6599 43.1132 61.828C41.9048 62.7098 41.2515 62.9711 40.1737 62.9711C38.9326 62.9711 38.6387 62.7752 36.777 60.9135C33.5762 57.7454 27.8279 50.2987 26.6194 47.7838C25.0517 44.583 24.3005 40.1411 24.7904 37.0056C26.1948 28.3504 35.0786 22.6674 44.191 24.5944Z" fill="#0090FF"/>
<path d="M37.3301 30.7672C33.0188 32.1717 30.014 36.7115 30.4712 41.1208C31.3531 49.4493 41.282 53.0747 47.259 47.2284C49.2513 45.2687 50.1332 43.1131 50.1005 40.1083C50.1005 38.116 49.9372 37.3321 49.2187 35.9603C48.1409 33.9027 46.4425 32.2043 44.5155 31.2572C42.6865 30.3753 39.2571 30.1467 37.3301 30.7672Z" fill="#FF6000"/>
</svg>
