<svg width="14" height="21" viewBox="0 0 14 21" fill="none" xmlns="http://www.w3.org/2000/svg">
<path d="M4.88012 2.4504C3.73656 2.54739 1.7229 3.69297 1.22669 4.61626C-0.40671 7.65516 0.855383 9.3776 0.966756 9.5803C2.34261 12.084 6.28262 12.3389 8.71472 13.2517C9.57249 13.5737 9.30301 14.4986 8.9856 14.6384C5.90753 15.9956 2.30303 13.3243 2.30303 13.3243C2.30303 13.3243 0.802878 15.5592 0 16.82C1.71275 18.0492 4.8648 18.7189 4.8648 18.7189V21H9.46828L9.45436 18.679C9.45436 18.679 12.3049 18.0802 13.3108 16.2569C14.7744 13.6036 13.4777 11.3691 13.3108 11.043C12.1617 8.79899 5.36081 8.027 5.21762 7.16888C5.18023 6.94427 5.28146 6.38952 5.49585 6.2999C5.75579 6.19128 8.27758 5.44082 11.5358 7.5671C12.2896 6.39766 13.7374 4.12377 13.7374 4.12377C13.7374 4.12377 12.0565 2.72526 9.46828 2.35342C9.46828 1.38358 9.46828 2.11301e-08 9.46828 2.11301e-08H4.865C4.865 -0.000193947 4.8646 1.33509 4.88012 2.4504Z" fill="#0090FF"/>
</svg>
