<svg width="24" height="43" viewBox="0 0 24 43" fill="none" xmlns="http://www.w3.org/2000/svg">
<path d="M0 7.88364C0 3.52951 3.52951 0 7.88364 0C12.2378 0 15.7673 3.52951 15.7673 7.88364C15.7673 12.2378 12.2378 15.7673 7.88364 15.7673C6.40786 15.7673 5.02733 15.3621 3.84585 14.6562C1.54261 13.2799 0 10.762 0 7.88364Z" fill="#14D8C4"/>
<path d="M9.5157 13.8643H3.80664V25.8255H9.5157V13.8643Z" fill="#14D8C4"/>
<rect x="5.61523" y="18.5061" width="5.2605" height="5.2605" rx="2.63025" transform="rotate(-45 5.61523 18.5061)" fill="#14D8C4"/>
<rect x="5.61523" y="24.4773" width="5.2605" height="5.2605" rx="2.63025" transform="rotate(-45 5.61523 24.4773)" fill="#14D8C4"/>
<rect x="3.69727" y="25.8049" width="5.78067" height="5.68014" rx="2.84007" transform="rotate(-45 3.69727 25.8049)" fill="#14D8C4"/>
<path d="M7.89062 20.8927C7.89062 16.5385 11.4201 13.009 15.7743 13.009C20.1284 13.009 23.6579 16.5385 23.6579 20.8927C23.6579 25.2468 20.1284 28.7763 15.7743 28.7763C14.2985 28.7763 12.918 28.3711 11.7365 27.6652C9.43323 26.289 7.89062 23.771 7.89062 20.8927Z" fill="#FD4304" style="mix-blend-mode:darken"/>
<path d="M17.4063 26.8733H11.6973V38.8345H17.4063V26.8733Z" fill="#FD4304" style="mix-blend-mode:darken"/>
<path d="M19.5054 38.9093L15.7008 42.7139C15.6595 42.7551 15.5927 42.7551 15.5515 42.7139L11.7262 38.8886C11.685 38.8474 11.685 38.7806 11.7262 38.7394L15.5309 34.9347C15.5721 34.8935 15.6389 34.8935 15.6801 34.9347L19.5054 38.76C19.5466 38.8012 19.5466 38.868 19.5054 38.9093Z" fill="#FD4304" style="mix-blend-mode:darken"/>
<path d="M20.554 37.8598L16.9741 41.4398C16.9115 41.5023 16.8106 41.5023 16.748 41.4398L13.168 37.8598C13.1055 37.7972 13.1055 37.6963 13.168 37.6337L16.748 34.0538C16.8106 33.9912 16.9115 33.9912 16.9741 34.0538L20.554 37.6337C20.6166 37.6963 20.6166 37.7972 20.554 37.8598Z" fill="#FD4304" style="mix-blend-mode:darken"/>
<path d="M20.8268 31.6078L17.2475 35.1871C17.1849 35.2497 17.0833 35.2497 17.0207 35.1871L13.4414 31.6078C13.3789 31.5453 13.3789 31.4436 13.4414 31.3811L17.0207 27.8018C17.0833 27.7392 17.1849 27.7392 17.2475 27.8018L20.8268 31.3811C20.8893 31.4436 20.8893 31.5453 20.8268 31.6078Z" fill="#FD4304" style="mix-blend-mode:darken"/>
</svg>
