<svg width="17" height="17" viewBox="0 0 17 17" fill="none" xmlns="http://www.w3.org/2000/svg">
<path fill-rule="evenodd" clip-rule="evenodd" d="M11.0455 12.5102C9.87153 13.3811 13.5221 9.63993 12.4833 11.0621C12.5093 11.06 12.4611 11.1388 12.2996 11.3365C12.2996 11.3365 15.0739 14.0981 16.4357 15.5035C16.9085 16.0159 16.0555 17.0385 15.4759 16.5046C14.2427 15.3055 11.3245 12.3254 11.32 12.3206L11.0455 12.5102Z" fill="#626367" fill-opacity="0.5"/>
<path d="M6.97312 13.9072C8.75818 13.8899 10.5252 13.1489 11.7959 11.8904C13.3051 10.3957 14.0822 8.18434 13.8111 6.07304C13.3466 2.4552 10.3789 0 6.92876 0C4.30732 0 1.75971 1.6434 0.642231 4.02635C-0.21321 5.85072 -0.214943 8.05339 0.642231 9.88089C1.75174 12.2472 4.25775 13.8819 6.88404 13.9072C6.91385 13.9072 6.94366 13.9072 6.97312 13.9072ZM6.89132 12.7481C4.22552 12.7224 1.73822 10.6562 1.24361 8.00719C0.894912 6.13973 1.55313 4.11875 2.92433 2.79249C4.52499 1.24358 7.04106 0.724957 9.13322 1.60276C11.0049 2.38816 12.4059 4.21184 12.6642 6.22102C12.8853 7.94327 12.2687 9.7482 11.0569 10.9914C9.99386 12.0822 8.50307 12.7331 6.96584 12.7481C6.94089 12.7481 6.91628 12.7481 6.89132 12.7481Z" fill="#626367" fill-opacity="0.5"/>
</svg>
