<svg width="54" height="60" viewBox="0 0 54 60" fill="none" xmlns="http://www.w3.org/2000/svg">
<rect width="14.7215" height="10.2088" rx="1.20269" transform="matrix(0.971946 0.235206 -0.236815 0.971555 37.8848 10.7236)" fill="#4C4C4C"/>
<path d="M40.6942 15.4922L40.334 15.4028L40.7348 13.8048L41.0949 13.8942L40.6942 15.4922ZM41.0359 15.577L41.4367 13.979L42.0031 14.1196C42.5711 14.2605 42.7899 14.5906 42.6597 15.1099C42.5972 15.3588 42.4697 15.5382 42.2771 15.6483C42.0852 15.7585 41.8603 15.7816 41.6024 15.7175L41.0359 15.577ZM41.7234 14.3615L41.4693 15.3744L41.6477 15.4187C41.8038 15.4574 41.9378 15.441 42.0498 15.3693C42.1625 15.2978 42.239 15.1815 42.2794 15.0203C42.3176 14.868 42.3034 14.7374 42.2367 14.6286C42.171 14.5191 42.0586 14.4447 41.8995 14.4052L41.7234 14.3615ZM43.4051 15.6488L42.7952 15.4975L42.857 15.2512L43.4669 15.4026L43.4051 15.6488ZM44.4382 16.3775C44.3471 16.4038 44.2265 16.3984 44.0763 16.3611C43.9009 16.3176 43.7723 16.2292 43.6904 16.096C43.6085 15.9629 43.5886 15.8124 43.6307 15.6445C43.6793 15.4506 43.7756 15.3123 43.9195 15.2296C44.0644 15.1464 44.2342 15.129 44.4289 15.1773C44.5635 15.2107 44.6564 15.2527 44.7076 15.3033L44.6327 15.6019C44.5729 15.5287 44.4977 15.4808 44.407 15.4583C44.3059 15.4332 44.2182 15.443 44.1438 15.4877C44.0703 15.5318 44.0206 15.6059 43.9945 15.7099C43.9692 15.8109 43.9775 15.8974 44.0194 15.9694C44.0616 16.0406 44.1321 16.0885 44.231 16.113C44.3187 16.1348 44.4114 16.1286 44.5092 16.0945L44.4382 16.3775ZM45.587 16.7064L45.2536 16.6237L45.2947 16.4599L45.2902 16.4587C45.1816 16.5675 45.0522 16.6033 44.902 16.566C44.7913 16.5385 44.7118 16.4856 44.6635 16.4074C44.6161 16.3286 44.6056 16.2368 44.6319 16.132C44.6874 15.9106 44.8506 15.8154 45.1216 15.8464L45.4419 15.8821C45.4732 15.7573 45.4212 15.6781 45.2859 15.6445C45.1499 15.6107 45.0104 15.6191 44.8675 15.6697L44.934 15.4045C44.9894 15.3914 45.0619 15.3857 45.1514 15.3874C45.2418 15.3893 45.3219 15.3989 45.3918 15.4163C45.7173 15.4971 45.8394 15.6998 45.758 16.0244L45.587 16.7064ZM45.3721 16.1607L45.3913 16.0838L45.1772 16.059C45.059 16.0455 44.9889 16.0829 44.9667 16.1713C44.9566 16.2114 44.9621 16.2479 44.9831 16.2807C45.005 16.313 45.0397 16.335 45.0873 16.3468C45.1535 16.3633 45.213 16.354 45.266 16.319C45.3192 16.2833 45.3545 16.2305 45.3721 16.1607ZM46.7942 16.1313C46.7576 16.0977 46.7111 16.0739 46.6546 16.0599C46.578 16.0409 46.5111 16.0543 46.4538 16.1001C46.3968 16.1451 46.3561 16.2159 46.3319 16.3124L46.1952 16.8573L45.8429 16.7699L46.1291 15.6288L46.4814 15.7163L46.4283 15.928L46.4328 15.9291C46.5273 15.7884 46.647 15.7361 46.792 15.772C46.8291 15.7813 46.857 15.7929 46.8756 15.807L46.7942 16.1313ZM47.8382 17.2651L47.4859 17.1776L47.5253 17.0205L47.5208 17.0194C47.4096 17.1228 47.2763 17.1552 47.121 17.1167C46.9782 17.0813 46.876 17.0026 46.8142 16.8807C46.7525 16.7581 46.7443 16.6066 46.7896 16.426C46.8369 16.2373 46.9228 16.0981 47.0472 16.0082C47.1716 15.9183 47.3115 15.8927 47.4668 15.9312C47.614 15.9678 47.7034 16.046 47.7349 16.1658L47.7394 16.167L47.9096 15.4883L48.2619 15.5758L47.8382 17.2651ZM47.6317 16.6244L47.6533 16.5386C47.6719 16.4643 47.6658 16.3973 47.635 16.3375C47.6042 16.2778 47.5542 16.2394 47.4851 16.2222C47.407 16.2028 47.3383 16.2185 47.279 16.2693C47.2199 16.3194 47.1769 16.3979 47.1501 16.5048C47.1249 16.6051 47.1267 16.6876 47.1555 16.7524C47.1843 16.8171 47.2362 16.8588 47.3113 16.8775C47.3826 16.8952 47.4478 16.881 47.5067 16.8348C47.5664 16.7889 47.6081 16.7187 47.6317 16.6244Z" fill="white"/>
<path d="M40.7008 17.1516L40.385 17.117L40.5445 17.4064L40.3067 17.4953L40.2249 17.1744L40.0012 17.4195L39.832 17.2296L40.1107 17.0489L39.8155 16.9319L39.9511 16.7264L40.2019 16.9165L40.2342 16.5848L40.4951 16.6496L40.3669 16.9575L40.6759 16.9063L40.7008 17.1516ZM41.7172 17.4038L41.4013 17.3692L41.5609 17.6586L41.323 17.7475L41.2413 17.4266L41.0175 17.6717L40.8484 17.4818L41.127 17.3012L40.8319 17.1841L40.9675 16.9787L41.2183 17.1688L41.2505 16.837L41.5115 16.9018L41.3833 17.2097L41.6922 17.1585L41.7172 17.4038ZM42.7335 17.6561L42.4177 17.6215L42.5773 17.9108L42.3394 17.9998L42.2576 17.6788L42.0339 17.9239L41.8648 17.734L42.1434 17.5534L41.8482 17.4364L41.9838 17.2309L42.2346 17.421L42.2669 17.0893L42.5278 17.154L42.3997 17.4619L42.7086 17.4108L42.7335 17.6561ZM43.7499 17.9083L43.434 17.8737L43.5936 18.1631L43.3557 18.252L43.274 17.931L43.0502 18.1762L42.8811 17.9862L43.1597 17.8056L42.8646 17.6886L43.0002 17.4831L43.251 17.6732L43.2833 17.3415L43.5442 17.4063L43.416 17.7142L43.725 17.663L43.7499 17.9083ZM44.7663 18.1605L44.4504 18.1259L44.61 18.4153L44.3721 18.5042L44.2903 18.1833L44.0666 18.4284L43.8975 18.2385L44.1761 18.0579L43.8809 17.9408L44.0166 17.7354L44.2674 17.9254L44.2996 17.5937L44.5605 17.6585L44.4324 17.9664L44.7413 17.9152L44.7663 18.1605ZM45.7826 18.4128L45.4668 18.3782L45.6263 18.6675L45.3885 18.7565L45.3067 18.4355L45.083 18.6806L44.9138 18.4907L45.1925 18.3101L44.8973 18.193L45.0329 17.9876L45.2837 18.1777L45.316 17.846L45.5769 17.9107L45.4487 18.2186L45.7577 18.1675L45.7826 18.4128ZM46.799 18.665L46.4831 18.6304L46.6427 18.9198L46.4048 19.0087L46.3231 18.6877L46.0993 18.9329L45.9302 18.7429L46.2088 18.5623L45.9137 18.4453L46.0493 18.2398L46.3001 18.4299L46.3323 18.0982L46.5933 18.1629L46.4651 18.4709L46.774 18.4197L46.799 18.665ZM47.8153 18.9172L47.4995 18.8826L47.6591 19.172L47.4212 19.2609L47.3394 18.94L47.1157 19.1851L46.9466 18.9952L47.2252 18.8146L46.93 18.6975L47.0656 18.4921L47.3164 18.6821L47.3487 18.3504L47.6096 18.4152L47.4815 18.7231L47.7904 18.6719L47.8153 18.9172Z" fill="white"/>
<rect x="21" y="35.1079" width="12" height="23" fill="#C4C4C4"/>
<path d="M32.6592 40.9316L30.147 35.8477L43.519 29.3094C44.9258 28.6215 46.6286 29.202 47.3223 30.6059C48.0161 32.0098 47.438 33.7055 46.0312 34.3933L32.6592 40.9316Z" fill="#C4C4C4"/>
<path d="M47.7665 30.8746C48.2045 32.379 47.3302 33.9528 45.8245 34.3866C44.3188 34.8203 42.7344 33.9549 42.2963 32.4504L40.01 24.5976C39.572 23.0931 40.4463 21.5193 41.952 21.0855C43.4577 20.6518 45.0421 21.5172 45.4802 23.0217L47.7665 30.8746Z" fill="#C4C4C4"/>
<rect width="14.7194" height="10.2103" rx="1.20269" transform="matrix(0.95776 -0.287568 0.288449 0.957495 2.2002 14.3408)" fill="#4C4C4C"/>
<path d="M6.2156 16.7064C5.83922 16.8165 5.573 16.6075 5.41694 16.0794C5.33597 15.8054 5.32505 15.582 5.38417 15.4091C5.44381 15.2353 5.57029 15.1201 5.76363 15.0635C6.13118 14.9561 6.39429 15.1708 6.55296 15.7077C6.63197 15.975 6.64218 16.1947 6.58358 16.3666C6.52571 16.5384 6.40305 16.6516 6.2156 16.7064ZM5.82666 15.3336C5.67596 15.3776 5.6565 15.5888 5.76829 15.9671C5.87356 16.3233 6.00008 16.4798 6.14783 16.4366C6.29191 16.3945 6.30969 16.1898 6.20116 15.8225C6.09263 15.4553 5.9678 15.2923 5.82666 15.3336ZM7.78585 15.2766C7.82731 15.4168 7.84899 15.547 7.85089 15.6669C7.85257 15.7861 7.83493 15.8926 7.79796 15.9864C7.76173 16.08 7.70705 16.1598 7.63393 16.2259C7.5606 16.2912 7.4699 16.3397 7.36184 16.3713C7.23246 16.4091 7.11501 16.4211 7.0095 16.4073L6.92485 16.1208C7.02398 16.1509 7.13198 16.1488 7.24886 16.1146C7.36869 16.0796 7.45037 16.0114 7.4939 15.9101C7.53744 15.8088 7.53678 15.6809 7.49194 15.5265L7.48467 15.5262C7.44544 15.6502 7.35452 15.733 7.21191 15.7747C7.14722 15.7937 7.08373 15.7991 7.02143 15.7909C6.95987 15.7826 6.90258 15.7631 6.84956 15.7323C6.79706 15.7006 6.75062 15.6583 6.71025 15.6054C6.67061 15.5524 6.64027 15.4903 6.61921 15.419C6.59469 15.336 6.58593 15.2564 6.59294 15.1801C6.59995 15.1039 6.62045 15.034 6.65442 14.9706C6.68913 14.907 6.73676 14.852 6.79731 14.8056C6.85765 14.7584 6.92935 14.7227 7.01241 14.6984C7.09842 14.6732 7.1806 14.6675 7.25895 14.6813C7.33708 14.6944 7.40937 14.7255 7.47582 14.7747C7.54301 14.8237 7.60266 14.8904 7.65479 14.9749C7.70765 15.0592 7.75134 15.1598 7.78585 15.2766ZM7.3794 15.1943C7.36746 15.1539 7.35114 15.1176 7.33043 15.0854C7.3095 15.0524 7.28605 15.0257 7.26007 15.0054C7.2341 14.9851 7.20571 14.9714 7.1749 14.9645C7.14388 14.9568 7.11257 14.9576 7.08096 14.9668C7.05082 14.9756 7.02484 14.9904 7.00302 15.0111C6.98193 15.0317 6.96567 15.0564 6.95424 15.0852C6.94259 15.1134 6.93639 15.1451 6.93565 15.1804C6.93491 15.2158 6.94008 15.2522 6.95115 15.2896C6.9633 15.3308 6.9793 15.366 6.99914 15.3953C7.01877 15.4239 7.04102 15.4465 7.06591 15.4631C7.09154 15.4796 7.11932 15.4898 7.14926 15.4938C7.17898 15.4971 7.21001 15.494 7.24235 15.4846C7.27323 15.4755 7.29943 15.4615 7.32095 15.4424C7.34225 15.4226 7.35868 15.3999 7.37025 15.3741C7.38255 15.3482 7.38935 15.3199 7.39066 15.2892C7.3927 15.2583 7.38895 15.2266 7.3794 15.1943ZM8.68031 14.2394L8.45393 16.3069L8.14298 16.3978L8.36605 14.3313L8.68031 14.2394ZM9.74694 15.6738C9.37057 15.7839 9.10435 15.5749 8.94828 15.0468C8.86732 14.7728 8.8564 14.5494 8.91552 14.3765C8.97515 14.2026 9.10164 14.0874 9.29497 14.0309C9.66253 13.9234 9.92564 14.1381 10.0843 14.6751C10.1633 14.9424 10.1735 15.1621 10.1149 15.334C10.0571 15.5057 9.9344 15.619 9.74694 15.6738ZM9.358 14.3009C9.2073 14.345 9.18785 14.5562 9.29963 14.9344C9.40491 15.2907 9.53142 15.4472 9.67918 15.404C9.82326 15.3618 9.84104 15.1572 9.73251 14.7899C9.62398 14.4227 9.49914 14.2597 9.358 14.3009ZM11.1732 13.7283C11.1402 13.876 11.1122 14.0138 11.0893 14.1418C11.0663 14.269 11.0495 14.3932 11.0389 14.5144C11.0282 14.6348 11.0244 14.7557 11.0275 14.8768C11.0303 14.9973 11.0413 15.125 11.0604 15.2598L10.6965 15.3662C10.6808 15.2375 10.6731 15.1113 10.6732 14.9876C10.6734 14.8639 10.6798 14.7423 10.6925 14.6229C10.7056 14.5026 10.724 14.3839 10.7477 14.2668C10.7722 14.1495 10.8002 14.0336 10.8318 13.919L10.0975 14.1338L10.0135 13.8495L11.1139 13.5277L11.1732 13.7283ZM12.2117 13.2067L11.9853 15.2742L11.6743 15.3652L11.8974 13.2986L12.2117 13.2067ZM13.0172 14.374L13.6877 14.178L13.773 14.4666L12.721 14.7742L12.6859 14.6552C12.662 14.5744 12.6542 14.4981 12.6625 14.4263C12.6706 14.3537 12.6878 14.286 12.7139 14.2233C12.7399 14.1598 12.7714 14.1016 12.8084 14.0484C12.846 13.9944 12.8821 13.9451 12.9169 13.9006C12.9534 13.854 12.9845 13.8106 13.0102 13.7704C13.0366 13.73 13.0572 13.6916 13.072 13.6554C13.0874 13.6182 13.0965 13.5828 13.0993 13.5492C13.102 13.5149 13.0982 13.4805 13.088 13.446C13.068 13.3784 13.0338 13.333 12.9854 13.3096C12.937 13.2863 12.8734 13.2861 12.7948 13.3091C12.6588 13.3489 12.5446 13.4409 12.4523 13.5852L12.3618 13.2789C12.473 13.1499 12.615 13.0601 12.7877 13.0096C12.8679 12.9861 12.9427 12.9758 13.0122 12.9786C13.0822 12.9805 13.145 12.9945 13.2006 13.0205C13.2563 13.0465 13.3037 13.0841 13.343 13.1333C13.3828 13.1815 13.4128 13.2397 13.433 13.308C13.4545 13.3808 13.4622 13.4487 13.4561 13.5119C13.4508 13.5749 13.4362 13.6351 13.4124 13.6923C13.3893 13.7493 13.3592 13.8044 13.3222 13.8575C13.285 13.9099 13.2456 13.9617 13.204 14.013C13.1761 14.0482 13.1493 14.0832 13.1236 14.1179C13.0985 14.1516 13.0769 14.1842 13.0591 14.2157C13.0411 14.2465 13.0281 14.2755 13.0201 14.3025C13.0121 14.3296 13.0112 14.3534 13.0172 14.374ZM14.346 12.5443L14.8233 14.1595L14.4759 14.261L14.1145 13.0381C14.1004 13.0606 14.0824 13.0834 14.0605 13.1066C14.0391 13.1288 14.0156 13.1504 13.9898 13.1715C13.9639 13.1919 13.9364 13.2111 13.9074 13.2291C13.8782 13.2465 13.8487 13.2615 13.8189 13.2742L13.7323 12.9811C13.8149 12.9282 13.8902 12.8695 13.9582 12.805C14.0261 12.7404 14.0852 12.674 14.1354 12.6059L14.346 12.5443Z" fill="white"/>
<path d="M6.05649 19.6693L5.91163 20.4015L6.02164 20.7738L5.90354 20.8083L5.79436 20.4388L5.28181 19.8958L5.41608 19.8566L5.77624 20.2457C5.78071 20.2505 5.795 20.2687 5.81911 20.3004L5.82122 20.2997C5.8212 20.2824 5.82402 20.2592 5.82967 20.2301L5.93136 19.7059L6.05649 19.6693ZM6.64421 20.61C6.53782 20.6411 6.44287 20.6325 6.35934 20.5842C6.27615 20.5353 6.21815 20.4553 6.18535 20.3444C6.14965 20.2235 6.15481 20.1195 6.20082 20.0323C6.24684 19.9451 6.32608 19.885 6.43856 19.8521C6.54588 19.8208 6.63929 19.8293 6.71879 19.8778C6.79876 19.9261 6.85604 20.0088 6.89064 20.1259C6.92454 20.2406 6.91916 20.3422 6.8745 20.4305C6.83017 20.5183 6.7534 20.5781 6.64421 20.61ZM6.45877 19.9515C6.38472 19.9732 6.33361 20.0156 6.30544 20.0788C6.27713 20.1415 6.27606 20.2171 6.30221 20.3056C6.32739 20.3908 6.36905 20.4516 6.42716 20.4881C6.48528 20.5245 6.55089 20.532 6.624 20.5106C6.69851 20.4888 6.74856 20.448 6.77415 20.3881C6.8002 20.3281 6.80008 20.2536 6.77378 20.1647C6.74721 20.0747 6.70658 20.0113 6.65189 19.9744C6.59766 19.9374 6.53329 19.9297 6.45877 19.9515ZM7.7496 20.2685L7.63431 20.3022L7.60068 20.1884L7.59787 20.1892C7.57581 20.2903 7.51463 20.3555 7.41434 20.3848C7.24281 20.435 7.12688 20.358 7.06655 20.1538L6.93951 19.724L7.0541 19.6905L7.17573 20.1021C7.22057 20.2538 7.3011 20.3126 7.41733 20.2787C7.47357 20.2622 7.51364 20.2281 7.53755 20.1763C7.56179 20.124 7.56401 20.0643 7.54423 19.9974L7.42176 19.5829L7.53705 19.5492L7.7496 20.2685ZM8.16589 19.492C8.14117 19.4825 8.10983 19.4832 8.07187 19.4943C8.02266 19.5087 7.98827 19.544 7.96869 19.6C7.94959 19.656 7.95187 19.724 7.97553 19.8041L8.08388 20.1707L7.96859 20.2044L7.75604 19.4852L7.87133 19.4515L7.91513 19.5997L7.91794 19.5989C7.9194 19.5435 7.93285 19.4968 7.95829 19.4589C7.98359 19.4204 8.01709 19.3951 8.0588 19.3829C8.0888 19.3742 8.11273 19.3707 8.1306 19.3726L8.16589 19.492ZM8.85646 19.5312L8.96897 19.9119L8.85087 19.9465L8.55321 18.9392L8.83018 18.8582C8.93797 18.8267 9.02914 18.8285 9.10369 18.8637C9.17871 18.8988 9.23033 18.964 9.25856 19.0596C9.28679 19.1551 9.27686 19.2429 9.22877 19.3231C9.18115 19.4032 9.10133 19.4596 8.98933 19.4924L8.85646 19.5312ZM8.70286 19.0114L8.82491 19.4245L8.94864 19.3883C9.03018 19.3644 9.08681 19.3278 9.11853 19.2783C9.15057 19.2282 9.15656 19.1693 9.1365 19.1014C9.0972 18.9684 8.99881 18.9249 8.84135 18.971L8.70286 19.0114ZM9.82532 19.0068C9.8006 18.9972 9.76926 18.998 9.7313 19.0091C9.68209 19.0235 9.6477 19.0587 9.62813 19.1148C9.60902 19.1707 9.6113 19.2388 9.63496 19.3188L9.74332 19.6855L9.62803 19.7192L9.41547 18.9999L9.53076 18.9662L9.57456 19.1144L9.57737 19.1136C9.57883 19.0582 9.59228 19.0116 9.61772 18.9736C9.64302 18.9352 9.67653 18.9099 9.71824 18.8977C9.74823 18.8889 9.77216 18.8855 9.79003 18.8874L9.82532 19.0068ZM9.90668 18.6579C9.88606 18.6639 9.86641 18.662 9.84773 18.6522C9.82905 18.6424 9.81653 18.6268 9.81016 18.6052C9.8038 18.5837 9.8058 18.5638 9.81618 18.5455C9.82642 18.5267 9.84185 18.5143 9.86247 18.5083C9.88356 18.5021 9.90351 18.5042 9.92233 18.5144C9.94148 18.5241 9.95423 18.5397 9.9606 18.5612C9.96669 18.5819 9.96438 18.6016 9.95367 18.6205C9.94343 18.6393 9.92777 18.6517 9.90668 18.6579ZM10.2294 19.5433L10.1142 19.577L9.9016 18.8578L10.0169 18.8241L10.2294 19.5433ZM10.9294 19.3028C10.8839 19.3522 10.8232 19.388 10.7473 19.4102C10.6446 19.4402 10.5519 19.4312 10.4689 19.3833C10.3863 19.3347 10.3293 19.2572 10.2979 19.1509C10.2629 19.0324 10.2688 18.9274 10.3156 18.8359C10.3622 18.744 10.4423 18.6814 10.5557 18.6482C10.6189 18.6297 10.6782 18.6251 10.7334 18.6344L10.7682 18.7524C10.7037 18.7306 10.641 18.7286 10.5801 18.7464C10.5065 18.7679 10.4539 18.812 10.4222 18.8788C10.3908 18.9449 10.3878 19.0209 10.4131 19.1065C10.438 19.1908 10.4797 19.2509 10.5382 19.2867C10.5971 19.3224 10.6638 19.3293 10.7383 19.3075C10.8011 19.2892 10.854 19.2511 10.897 19.1932L10.9294 19.3028ZM11.5798 18.789L11.0716 18.9377C11.0971 19.0172 11.137 19.0727 11.1911 19.1042C11.2452 19.1357 11.3083 19.1409 11.3805 19.1197C11.4616 19.096 11.5282 19.0476 11.5804 18.9743L11.6123 19.0825C11.5626 19.1469 11.4858 19.1943 11.3817 19.2247C11.28 19.2544 11.1905 19.2453 11.1132 19.1972C11.0357 19.1486 10.9794 19.0651 10.9444 18.9466C10.9113 18.8347 10.9161 18.7344 10.9586 18.6456C11.0014 18.5563 11.0699 18.4978 11.1641 18.4703C11.2583 18.4427 11.3402 18.4519 11.4097 18.4977C11.4793 18.5435 11.53 18.6205 11.562 18.7286L11.5798 18.789ZM11.4329 18.7259C11.4128 18.6596 11.3813 18.6126 11.3385 18.5849C11.2962 18.5571 11.2469 18.5514 11.1907 18.5678C11.1363 18.5837 11.0959 18.6167 11.0694 18.6666C11.0429 18.7166 11.0345 18.7743 11.0441 18.8396L11.4329 18.7259ZM12.2344 18.957L11.9367 17.9498L12.2236 17.8659C12.3107 17.8404 12.3862 17.8415 12.4498 17.8692C12.5135 17.8969 12.5554 17.9449 12.5757 18.0133C12.5925 18.0704 12.5917 18.1246 12.5733 18.1757C12.5548 18.2269 12.521 18.2694 12.4719 18.3031L12.4727 18.3059C12.543 18.294 12.605 18.3038 12.6586 18.3354C12.7121 18.3666 12.7491 18.4168 12.7696 18.4861C12.7951 18.5723 12.7848 18.6511 12.7387 18.7226C12.6926 18.7941 12.6225 18.8436 12.5283 18.8711L12.2344 18.957ZM12.0864 18.022L12.1825 18.3472L12.3034 18.3119C12.3681 18.293 12.4144 18.2627 12.4423 18.2209C12.47 18.1787 12.4755 18.1293 12.4588 18.0726C12.4299 17.9748 12.351 17.9447 12.2221 17.9824L12.0864 18.022ZM12.2138 18.4533L12.321 18.8157L12.4812 18.7689C12.5506 18.7486 12.5994 18.7165 12.6277 18.6726C12.6564 18.6286 12.6624 18.578 12.6455 18.5209C12.6103 18.402 12.5117 18.3662 12.3495 18.4136L12.2138 18.4533ZM13.3357 18.6533C13.2293 18.6844 13.1344 18.6758 13.0508 18.6275C12.9676 18.5786 12.9096 18.4986 12.8768 18.3876C12.8411 18.2668 12.8463 18.1628 12.8923 18.0756C12.9383 17.9884 13.0176 17.9283 13.1301 17.8954C13.2374 17.864 13.3308 17.8726 13.4103 17.9211C13.4903 17.9694 13.5475 18.0521 13.5821 18.1692C13.616 18.2839 13.6107 18.3854 13.566 18.4738C13.5217 18.5615 13.4449 18.6214 13.3357 18.6533ZM13.1503 17.9948C13.0762 18.0165 13.0251 18.0589 12.9969 18.1221C12.9686 18.1848 12.9676 18.2604 12.9937 18.3489C13.0189 18.4341 13.0605 18.4949 13.1187 18.5314C13.1768 18.5678 13.2424 18.5753 13.3155 18.5539C13.39 18.5321 13.4401 18.4913 13.4656 18.4314C13.4917 18.3714 13.4916 18.2969 13.4653 18.2079C13.4387 18.118 13.3981 18.0546 13.3434 18.0177C13.2892 17.9807 13.2248 17.973 13.1503 17.9948ZM14.1649 18.4108C14.0585 18.442 13.9635 18.4333 13.88 18.385C13.7968 18.3361 13.7388 18.2561 13.706 18.1452C13.6703 18.0244 13.6755 17.9203 13.7215 17.8331C13.7675 17.7459 13.8468 17.6858 13.9592 17.6529C14.0666 17.6216 14.16 17.6301 14.2395 17.6786C14.3194 17.7269 14.3767 17.8096 14.4113 17.9267C14.4452 18.0414 14.4398 18.143 14.3952 18.2313C14.3508 18.3191 14.2741 18.3789 14.1649 18.4108ZM13.9794 17.7523C13.9054 17.774 13.8543 17.8164 13.8261 17.8796C13.7978 17.9423 13.7967 18.0179 13.8229 18.1064C13.8481 18.1916 13.8897 18.2525 13.9478 18.2889C14.006 18.3253 14.0716 18.3328 14.1447 18.3114C14.2192 18.2897 14.2692 18.2488 14.2948 18.1889C14.3209 18.1289 14.3208 18.0544 14.2945 17.9655C14.2679 17.8756 14.2273 17.8121 14.1726 17.7752C14.1183 17.7382 14.054 17.7306 13.9794 17.7523ZM15.2857 18.0648L15.1241 18.112L14.7042 17.8594L14.7014 17.8602L14.8035 18.2058L14.6882 18.2395L14.3735 17.1747L14.4888 17.141L14.6883 17.816L14.6911 17.8151L14.896 17.3973L15.0472 17.3531L14.8158 17.7978L15.2857 18.0648ZM15.182 17.1153C15.1614 17.1213 15.1417 17.1195 15.123 17.1097C15.1043 17.0999 15.0918 17.0842 15.0855 17.0626C15.0791 17.0411 15.0811 17.0212 15.0915 17.0029C15.1017 16.9841 15.1171 16.9717 15.1378 16.9657C15.1589 16.9595 15.1788 16.9616 15.1976 16.9718C15.2168 16.9815 15.2295 16.9971 15.2359 17.0187C15.242 17.0393 15.2397 17.059 15.229 17.0779C15.2187 17.0967 15.2031 17.1091 15.182 17.1153ZM15.5047 18.0007L15.3894 18.0344L15.1769 17.3152L15.2922 17.2815L15.5047 18.0007ZM16.3213 17.762L16.206 17.7957L16.0848 17.3855C16.0396 17.2328 15.9613 17.1728 15.8498 17.2054C15.7921 17.2223 15.7508 17.258 15.7257 17.3127C15.7009 17.3667 15.6983 17.4268 15.7178 17.4928L15.839 17.903L15.7237 17.9367L15.5112 17.2174L15.6265 17.1837L15.6618 17.3031L15.6646 17.3023C15.6921 17.1956 15.7574 17.1271 15.8605 17.097C15.9392 17.074 16.007 17.0819 16.0638 17.1207C16.1204 17.1591 16.163 17.2263 16.1913 17.3223L16.3213 17.762ZM17.1222 17.4652C17.2002 17.7293 17.1127 17.8983 16.8596 17.9723C16.7706 17.9984 16.6878 18.0043 16.6113 17.99L16.5773 17.8748C16.6716 17.8961 16.7556 17.8959 16.8292 17.8744C17.0063 17.8226 17.0671 17.7026 17.0115 17.5144L16.9882 17.4357L16.9854 17.4365C16.9577 17.5443 16.8888 17.6143 16.7786 17.6465C16.6891 17.6727 16.6075 17.662 16.5339 17.6143C16.4606 17.5661 16.408 17.4881 16.3762 17.3804C16.34 17.2582 16.3406 17.1524 16.3779 17.0632C16.4156 16.9738 16.4856 16.9142 16.5877 16.8843C16.6848 16.856 16.7682 16.8738 16.838 16.9378L16.8408 16.937L16.8114 16.8372L16.9266 16.8035L17.1222 17.4652ZM16.9278 17.2313L16.8965 17.1252C16.8796 17.0681 16.8457 17.0249 16.7947 16.9955C16.7443 16.966 16.6902 16.9597 16.6326 16.9765C16.5613 16.9974 16.5132 17.0396 16.4883 17.1034C16.4632 17.1667 16.4644 17.2449 16.492 17.3381C16.5156 17.4182 16.5538 17.4767 16.6065 17.5137C16.6595 17.5501 16.7179 17.559 16.7816 17.5404C16.8463 17.5214 16.892 17.4831 16.9187 17.4255C16.946 17.3677 16.949 17.3029 16.9278 17.2313Z" fill="white"/>
<path d="M21.4941 40.9321L24.0063 35.8482L10.6343 29.3099C9.22749 28.622 7.5247 29.2025 6.83097 30.6064C6.13725 32.0103 6.7153 33.706 8.12208 34.3938L21.4941 40.9321Z" fill="#C4C4C4"/>
<path d="M6.38588 30.8746C5.94786 32.379 6.82213 33.9528 8.32783 34.3866C9.83353 34.8203 11.418 33.9549 11.856 32.4504L14.1423 24.5976C14.5803 23.0931 13.7061 21.5193 12.2004 21.0855C10.6947 20.6518 9.11021 21.5172 8.67219 23.0217L6.38588 30.8746Z" fill="#C4C4C4"/>
<ellipse cx="26.8775" cy="27.7462" rx="5.37852" ry="5.35021" fill="#C4C4C4"/>
<rect x="0.5" y="0.60791" width="53" height="58" rx="2.15487" stroke="#4C4C4C"/>
</svg>
