<svg width="12" height="13" viewBox="0 0 12 13" fill="none" xmlns="http://www.w3.org/2000/svg">
<path d="M5.38013 12.5597L0.290685 7.46038C0.198533 7.36833 0.125429 7.25902 0.0755507 7.1387C0.0256729 7.01837 0 6.8894 0 6.75915C0 6.6289 0.0256729 6.49993 0.0755507 6.37961C0.125429 6.25929 0.198533 6.14998 0.290685 6.05793L5.38013 0.953613L6.08383 1.65731L0.984475 6.76659L6.08383 11.856L5.38013 12.5597Z" fill="#006BBE"/>
<path d="M10.8313 12.5597L5.74189 7.46038C5.64974 7.36833 5.57663 7.25902 5.52675 7.1387C5.47688 7.01837 5.4512 6.8894 5.4512 6.75915C5.4512 6.6289 5.47688 6.49993 5.52675 6.37961C5.57663 6.25929 5.64974 6.14998 5.74189 6.05793L10.8313 0.953613L11.535 1.65731L6.43568 6.76659L11.535 11.856L10.8313 12.5597Z" fill="#006BBE"/>
</svg>
