<svg width="16" height="13" viewBox="0 0 16 13" fill="none" xmlns="http://www.w3.org/2000/svg">
<path d="M14.3093 12.1397H2.74212C2.04313 12.1397 1.47451 11.5704 1.47451 10.8705V10.6628H1.2676C0.568619 10.6628 0 10.0934 0 9.39361V1.26918C0 0.569378 0.568619 0 1.2676 0H12.8348C13.5338 0 14.1024 0.569348 14.1024 1.26918V1.47692H14.3093C15.0083 1.47692 15.5769 2.04626 15.5769 2.7461V10.8705C15.5769 11.5703 15.0083 12.1397 14.3093 12.1397ZM1.2676 10.0543H12.8348C13.1982 10.0543 13.4939 9.75794 13.4939 9.39361V8.60123H0.608474V9.39361C0.608474 9.75794 0.904161 10.0543 1.2676 10.0543ZM0.608474 7.99278H13.4939V6.7114H0.608474V7.99278ZM12.8348 0.608473H1.2676C0.904161 0.608473 0.608474 0.90486 0.608474 1.26918V6.1029H13.4939V1.26918C13.4939 0.90486 13.1982 0.608473 12.8348 0.608473ZM14.9684 2.74607C14.9684 2.38175 14.6728 2.08536 14.3093 2.08536H14.1024V9.39361C14.1024 10.0934 13.5338 10.6628 12.8348 10.6628H2.08299V10.8705C2.08299 11.2349 2.37867 11.5312 2.74212 11.5312H14.3093C14.6728 11.5312 14.9684 11.2349 14.9684 10.8705V2.74607Z" fill="#4C4C4C"/>
<path d="M5.09981 4.77881H2.00554C1.83754 4.77881 1.70131 4.6426 1.70131 4.47457V2.1398C1.70131 1.97177 1.83754 1.83556 2.00554 1.83556H5.09981C5.26781 1.83556 5.40405 1.97177 5.40405 2.1398V4.47457C5.40405 4.6426 5.26781 4.77881 5.09981 4.77881ZM4.79558 2.44406H2.30978V4.17037H4.79558V2.44406Z" fill="#4C4C4C"/>
<path d="M10.8191 4.89035C9.94667 4.89035 9.23692 4.18002 9.23692 3.30692C9.23692 2.43383 9.94667 1.7235 10.8191 1.7235C11.6915 1.7235 12.4013 2.43383 12.4013 3.30692C12.4013 4.18005 11.6915 4.89035 10.8191 4.89035ZM10.8191 2.33197C10.2822 2.33197 9.8454 2.76934 9.8454 3.30692C9.8454 3.84451 10.2822 4.28188 10.8191 4.28188C11.356 4.28188 11.7928 3.84451 11.7928 3.30692C11.7928 2.76934 11.356 2.33197 10.8191 2.33197Z" fill="#4C4C4C"/>
</svg>
